<svg xmlns="http://www.w3.org/2000/svg" xmlns:xlink="http://www.w3.org/1999/xlink" version="1.1" width="890.777pt" height="523.934pt" viewBox="0 0 890.777 523.934">
<defs>
<clipPath id="clip_0">
<path transform="matrix(1,0,0,-1,0,523.934)" d="M0 523.934H890.777V0H0Z"/>
</clipPath>
</defs>
<g id="layer_1" data-name="Layer 1">
<g clip-path="url(#clip_0)">
<path transform="matrix(1,0,0,-1,206.5152,274.90913)" d="M0 0C0-27.642 .01-55.284-.006-82.926-.011-91.257-2.805-92.94-9.949-88.858-20.201-82.999-30.387-77.024-40.633-71.154-47.001-67.506-50.073-62.052-50.069-54.754-50.051-18.287-50.036 18.181-50.06 54.648-50.065 61.845-46.757 67.07-40.705 70.602-30.072 76.808-19.387 82.926-8.677 88.998-3.327 92.031-.058 90.136-.046 83.925 .008 55.95-.022 27.975-.022 0Z" fill="#6d6d6d"/>
<path transform="matrix(1,0,0,-1,220.4956,217.44062)" d="M0 0C.001 20.798-.011 41.596 .008 62.394 .015 69.566 3.203 71.456 9.343 67.935 19.714 61.988 30.039 55.961 40.426 50.042 46.955 46.322 50.085 40.866 50.048 33.296 49.941 10.835 49.954-11.628 50.045-34.089 50.075-41.452 47.038-46.843 40.699-50.488 30.19-56.53 19.712-62.625 9.191-68.645 3.234-72.053 .02-70.218 .01-63.393-.021-42.262-.001-21.131 0 0" fill="#f27019"/>
<path transform="matrix(1,0,0,-1,330.2023,255.39472)" d="M0 0H22.157C28.15 0 32.433 1.284 35.002 3.853 37.784 6.208 39.177 10.276 39.177 16.056 39.177 20.98 37.892 24.939 35.323 27.937 32.325 30.506 28.366 31.791 23.442 31.791H0ZM0-19.909V-59.407H-22.8V39.498C-22.8 42.709-21.676 45.439-19.428 47.686-17.18 49.934-14.45 51.058-11.239 51.058H26.332C38.105 51.058 46.884 48.06 52.664 42.067 58.657 36.073 61.655 27.187 61.655 15.414 61.655 4.282 58.765-4.496 52.985-10.918 47.205-16.912 38.856-19.909 27.937-19.909Z" fill="#6d6d6d"/>
<path transform="matrix(1,0,0,-1,457.88,253.46802)" d="M0 0C-3.211 4.496-7.6 6.744-13.166 6.744-19.16 6.744-23.763 4.603-26.974 .321-30.185-3.962-31.791-9.848-31.791-17.34V-61.334H-53.627V49.131H-42.709C-39.712 49.131-37.143 48.06-35.002 45.92-32.862 43.779-31.791 41.21-31.791 38.213V12.845C-27.937 19.267-22.478 23.334-15.414 25.047-8.349 26.76-1.606 26.332 4.817 23.763 10.81 21.194 15.842 17.126 19.909 11.56 23.976 5.993 26.011-1.714 26.011-11.56V-61.334H4.496V-17.019C4.496-13.808 4.227-10.866 3.693-8.189 3.158-5.513 1.927-2.783 0 0" fill="#6d6d6d"/>
<path transform="matrix(1,0,0,-1,545.4177,271.77183)" d="M0 0C-2.998-1.499-7.173-2.89-12.524-4.175L-19.909-5.78C-23.763-6.852-26.546-8.242-28.259-9.955-29.757-12.311-30.506-14.665-30.506-17.019-30.506-20.231-29.543-22.8-27.616-24.726-25.69-26.44-22.908-27.295-19.267-27.295-13.274-27.295-8.563-25.583-5.138-22.157-1.714-18.733 0-14.022 0-8.028ZM5.138-39.498C.642-41.854-4.122-43.298-9.152-43.833-14.183-44.367-18.625-44.636-22.478-44.636-30.185-44.636-36.929-42.548-42.709-38.374-48.489-34.199-51.379-27.295-51.379-17.662-51.379-8.67-48.758-2.248-43.512 1.606-38.267 5.459-31.578 8.028-23.442 9.312-22.371 9.312-21.087 9.473-19.588 9.794-18.091 10.115-16.377 10.383-14.45 10.597-5.031 11.881-.321 14.663-.321 18.946-.321 22.157-1.98 24.245-5.299 25.208-8.618 26.171-11.669 26.653-14.45 26.653-17.449 26.653-20.124 26.224-22.478 25.369-24.834 24.512-26.546 22.907-27.616 20.552H-49.131C-48.276 27.187-45.278 32.646-40.14 36.929-34.36 41.853-26.119 44.315-15.414 44.315-3.425 44.315 5.566 42.28 11.56 38.213 17.769 33.931 20.873 27.937 20.873 20.231V-8.991C20.873-17.555 19.32-24.245 16.217-29.061 13.112-33.878 9.419-37.358 5.138-39.498" fill="#6d6d6d"/>
<path transform="matrix(1,0,0,-1,615.6136,314.802)" d="M0 0C-7.065-.428-14.719-.321-22.96 .321-31.202 .963-35.323 6.208-35.323 16.056V110.465H-23.763C-20.981 110.465-18.518 109.394-16.377 107.254-14.237 105.113-13.166 102.544-13.166 99.547V85.097H0V80.601C0 77.39-1.071 74.768-3.211 72.734-5.352 70.699-7.921 69.683-10.918 69.683H-13.166V22.157C-13.166 18.517-11.026 16.698-6.744 16.698H0Z" fill="#6d6d6d"/>
<path transform="matrix(1,0,0,-1,627.688,229.38404)" d="M0 0H11.56C14.557 0 17.126-1.072 19.267-3.211 21.407-5.352 22.478-7.921 22.478-10.918V-85.418H0ZM0 25.047H11.56C14.557 25.047 17.126 23.976 19.267 21.836 21.407 19.695 22.478 17.126 22.478 14.129V7.386H0Z" fill="#6d6d6d"/>
<path transform="matrix(1,0,0,-1,659.3507,314.802)" d="M0 0V87.987C0 95.694 2.034 101.474 6.101 105.327 9.955 108.967 16.27 110.787 25.047 110.787 27.188 110.787 28.901 110.678 30.185 110.465 32.54 110.465 34.36 110.357 35.644 110.144V92.483H29.864C26.867 92.483 24.726 92.053 23.442 91.198 22.371 90.342 21.836 88.629 21.836 86.06V80.28H35.644V75.463C35.644 72.252 34.574 69.63 32.433 67.596 30.292 65.561 27.83 64.545 25.047 64.545H21.836V0Z" fill="#6d6d6d"/>
<path transform="matrix(1,0,0,-1,717.023,344.9873)" d="M0 0V17.662H6.101C10.383 17.662 13.755 18.678 16.217 20.712 18.679 22.747 19.16 26.011 17.662 30.506L-12.203 115.603H12.524L29.864 55.233 44.957 107.896C46.241 113.034 49.667 115.603 55.233 115.603H70.646L37.892 18.304C35.323 11.239 32.112 6.209 28.259 3.211 24.405 .642 18.09-.642 9.313-.642H7.065 4.817C4.175-.428 3.372-.268 2.408-.161 1.445-.052 .642 0 0 0" fill="#6d6d6d"/>
</g>
</g>
</svg>
